<?xml version="1.0" encoding="UTF-8"?>
<svg id="Layer_1" xmlns="http://www.w3.org/2000/svg" xmlns:xlink="http://www.w3.org/1999/xlink" version="1.1" viewBox="0 0 1896 401">
  <!-- Generator: Adobe Illustrator 29.3.0, SVG Export Plug-In . SVG Version: 2.1.0 Build 146)  -->
  <defs>
    <style>
      .st0 {
        fill: #fff;
      }

      .st0, .st1 {
        fill-rule: evenodd;
      }

      .st1 {
        fill: #3395ff;
      }
    </style>
  </defs>
  <g id="Page-1">
    <g id="Group">
      <path id="Fill-1" class="st0" d="M451.9,151.5c-3,11.2-8.8,19.3-17.4,24.6-8.6,5.2-20.7,7.8-36.3,7.8h-49.5l17.4-64.8h49.5c15.6,0,26.3,2.6,32.1,7.8,5.8,5.2,7.2,13.4,4.2,24.6M503.2,150.1c6.3-23.5,3.7-41.5-7.8-54-11.5-12.5-31.7-18.8-60.5-18.8h-110.5l-66.5,248.1h53.7l26.8-100h35.2c7.9,0,14.1,1.3,18.6,3.8,4.6,2.6,7.2,7.1,8,13.6l9.6,82.6h57.5l-9.3-77c-1.9-17.2-9.8-27.3-23.6-30.3,17.6-5.1,32.4-13.6,44.3-25.4,11.9-11.8,20-26,24.5-42.5"/>
      <path id="Fill-3" class="st0" d="M633.6,236.5c-4.5,16.7-11.4,29.5-20.7,38.3-9.3,8.8-20.5,13.2-33.5,13.2s-22.3-4.4-27-13.1c-4.8-8.7-4.9-21.3-.5-37.8,4.4-16.5,11.5-29.4,21.2-38.7,9.7-9.3,21-13.9,34.1-13.9s21.8,4.5,26.4,13.4c4.6,8.9,4.6,21.8.1,38.5h0ZM657.2,148.7l-6.7,25.1c-2.9-9.1-8.5-16.3-16.9-21.6-8.3-5.3-18.7-8-31-8s-29.6,3.9-43.6,11.7c-13.9,7.8-26.1,18.8-36.5,32.9-10.4,14.2-18.1,30.3-22.9,48.4-4.9,18.1-5.8,34.1-2.9,47.9,2.9,13.8,9.2,24.5,19,31.9,9.7,7.4,22.3,11.1,37.6,11.1s24-2.6,35.2-7.7c11.1-5.1,20.6-12.2,28.3-21.3l-7,26.1h51.9l47.3-176.7h-51.9Z"/>
      <polygon id="Fill-5" class="st0" points="895.8 148.7 744.9 148.7 734.3 188.1 822.2 188.1 706 288.5 696.1 325.4 851.9 325.4 862.5 286 768.4 286 886.3 184.3 895.8 148.7"/>
      <path id="Fill-7" class="st0" d="M1028.7,236.2c-4.7,17.4-11.6,30.4-20.7,39-9.2,8.6-20.2,12.9-33.2,12.9-27.2,0-36.1-17.3-26.9-51.9,4.6-17.2,11.6-30.1,20.9-38.9,9.3-8.7,20.6-13.1,33.8-13.1s21.8,4.4,26.3,13.1c4.5,8.7,4.5,21.7-.1,38.9M1059,155.3c-11.9-7.4-27.2-11.1-45.8-11.1s-36.3,3.7-52.3,11.1c-16.1,7.4-29.7,18.1-41,32.1-11.3,13.9-19.4,30.2-24.4,48.8s-5.6,34.8-1.7,48.8c3.8,13.9,11.7,24.6,23.8,32.1,12.1,7.4,27.5,11.1,46.3,11.1s35.8-3.7,51.8-11.1c15.9-7.4,29.5-18.1,40.8-32.1,11.3-13.9,19.4-30.2,24.4-48.8s5.6-34.9,1.8-48.8c-3.8-13.9-11.7-24.6-23.6-32.1"/>
      <path id="Fill-9" class="st0" d="M1602.1,236.5c-4.5,16.7-11.4,29.5-20.7,38.3-9.3,8.8-20.5,13.2-33.5,13.2s-22.2-4.4-27-13.1c-4.8-8.7-4.9-21.3-.5-37.8,4.4-16.5,11.5-29.4,21.2-38.7,9.7-9.3,21-13.9,34.1-13.9s21.8,4.5,26.4,13.4c4.6,8.9,4.6,21.8.1,38.5h0ZM1625.7,148.7l-6.7,25.1c-2.9-9.1-8.5-16.3-16.9-21.6-8.3-5.3-18.7-8-31-8s-29.6,3.9-43.6,11.7c-13.9,7.8-26.1,18.8-36.5,32.9-10.4,14.2-18.1,30.3-22.9,48.4-4.9,18.1-5.8,34.1-2.9,47.9,2.9,13.8,9.2,24.5,19,31.9,9.7,7.4,22.3,11.1,37.6,11.1s24-2.6,35.2-7.7c11.1-5.1,20.6-12.2,28.3-21.3l-7,26.1h51.9l47.3-176.7h-51.9Z"/>
      <path id="Fill-11" class="st0" d="M1244.2,196.1l13.2-48.1c-4.5-2.3-10.5-3.5-17.9-3.5-11.9,0-23.3,3-34.3,8.9-9.4,5.1-17.5,12.2-24.3,21.2l6.9-25.9h-15s-36.9,0-36.9,0l-47.7,176.7h52.6l24.7-92.4c3.6-13.5,10.1-24,19.4-31.5,9.3-7.6,21-11.3,34.9-11.3s16.7,2,24.2,5.9"/>
      <path id="Fill-13" class="st0" d="M1390.7,237.2c-4.4,16.5-11.3,29.1-20.6,37.8-9.3,8.7-20.5,13.1-33.5,13.1s-21.9-4.4-26.6-13.2c-4.7-8.8-4.8-21.6-.4-38.3,4.5-16.7,11.5-29.6,20.9-38.5,9.5-8.9,20.7-13.4,33.8-13.4s21.5,4.7,26.1,13.9c4.6,9.3,4.7,22.2.3,38.7M1427.5,155.8c-9.8-7.8-22.2-11.7-37.3-11.7s-25.9,3-37.8,9.1c-12,6.1-21.7,14.3-29.1,24.7l.2-1.2,8.8-28.1h-10.2s-41.2,0-41.2,0l-13.1,48.9c-.2.6-.3,1.1-.4,1.7l-54,201.4h52.6l27.2-101.4c2.7,9.1,8.2,16.1,16.6,21.3,8.4,5.1,18.7,7.7,31.1,7.7s29.9-3.7,43.8-11.1c13.8-7.4,25.9-18.1,36.1-31.9,10.2-13.8,17.7-29.8,22.6-47.9,4.9-18.1,5.9-34.3,3-48.4-2.8-14.2-9.1-25.1-18.9-32.9"/>
      <path id="Fill-15" class="st0" d="M1895.5,148.8h0s-31.9,0-31.9,0c-1,0-1.9,0-2.9,0h-16.5l-8.5,11.8c-.7.9-1.4,1.8-2.1,2.8l-.9,1.4-67.2,93.6-13.9-109.7h-55.1l27.9,166.6-61.6,85.3h54.9l14.9-21.1c.4-.6.8-1.1,1.3-1.8l17.4-24.7.5-.7,77.9-110.5,65.7-93h0c0,0,0,0,0,0Z"/>
      <polygon id="Fill-17" class="st1" points="122.6 105.7 106.9 163.7 197 105.4 138.1 325.3 197.9 325.4 285 .5 122.6 105.7"/>
      <path id="Fill-19" class="st0" d="M25.6,232.9L.8,325.4h122.7s50.2-188.1,50.2-188.1c0,0-148.2,95.7-148.2,95.7"/>
    </g>
  </g>
</svg>